<svg width="453" height="139" viewBox="0 0 453 139" fill="none" xmlns="http://www.w3.org/2000/svg">
<path d="M20.2159 54H1.1875V4.54545H20.0227C25.1098 4.54545 29.5047 5.53551 33.2074 7.51562C36.9261 9.47964 39.7917 12.313 41.804 16.0156C43.8324 19.7022 44.8466 24.1212 44.8466 29.2727C44.8466 34.4242 43.8404 38.8513 41.8281 42.554C39.8158 46.2405 36.9664 49.0739 33.2798 51.054C29.5933 53.018 25.2386 54 20.2159 54ZM14.6136 42.6023H19.733C22.1799 42.6023 24.2647 42.2079 25.9872 41.419C27.7259 40.6302 29.0459 39.2699 29.9474 37.3381C30.8651 35.4062 31.3239 32.7178 31.3239 29.2727C31.3239 25.8277 30.857 23.1392 29.9233 21.2074C29.0057 19.2756 27.6534 17.9152 25.8665 17.1264C24.0956 16.3376 21.9223 15.9432 19.3466 15.9432H14.6136V42.6023ZM51.2518 54V16.9091H64.5813V54H51.2518ZM57.9165 13.0455C56.1135 13.0455 54.5681 12.4498 53.2802 11.2585C51.9923 10.0672 51.3484 8.63447 51.3484 6.96023C51.3484 5.28598 51.9923 3.85322 53.2802 2.66193C54.5681 1.47064 56.1135 0.875 57.9165 0.875C59.7357 0.875 61.2811 1.47064 62.5529 2.66193C63.8408 3.85322 64.4847 5.28598 64.4847 6.96023C64.4847 8.63447 63.8408 10.0672 62.5529 11.2585C61.2811 12.4498 59.7357 13.0455 57.9165 13.0455ZM89.2422 68.6818C85.5234 68.6818 82.3359 68.1506 79.6797 67.0881C77.0395 66.0417 74.987 64.5928 73.522 62.7415C72.0732 60.9063 71.2602 58.7973 71.0831 56.4148H83.9297C84.0585 57.2036 84.3804 57.8395 84.8956 58.3224C85.4107 58.8054 86.0708 59.1515 86.8757 59.3608C87.6967 59.5862 88.6143 59.6989 89.6286 59.6989C91.3511 59.6989 92.7758 59.2803 93.9027 58.4432C95.0457 57.6061 95.6172 56.0928 95.6172 53.9034V47.625H95.2308C94.7479 48.8807 94.0073 49.9512 93.0092 50.8366C92.0111 51.706 90.8118 52.3741 89.4112 52.8409C88.0107 53.2917 86.4732 53.517 84.799 53.517C82.1589 53.517 79.728 52.9053 77.5064 51.6818C75.3009 50.4583 73.5301 48.5185 72.1939 45.8622C70.8738 43.206 70.2138 39.7367 70.2138 35.4545C70.2138 30.9792 70.906 27.3409 72.2905 24.5398C73.6911 21.7386 75.4941 19.6861 77.6996 18.3821C79.9212 17.0781 82.2554 16.4261 84.7024 16.4261C86.5376 16.4261 88.1475 16.7481 89.532 17.392C90.9164 18.0199 92.0755 18.8651 93.0092 19.9276C93.9429 20.974 94.6513 22.125 95.1342 23.3807H95.424V16.9091H108.754V53.9034C108.754 57.0426 107.941 59.7069 106.315 61.8963C104.705 64.1018 102.435 65.7841 99.505 66.9432C96.575 68.1023 93.1541 68.6818 89.2422 68.6818ZM89.7251 44.0511C90.9486 44.0511 91.995 43.7131 92.8643 43.0369C93.7498 42.3447 94.4259 41.3627 94.8928 40.0909C95.3757 38.803 95.6172 37.2576 95.6172 35.4545C95.6172 33.6193 95.3757 32.0497 94.8928 30.7457C94.4259 29.4257 93.7498 28.4195 92.8643 27.7273C91.995 27.0189 90.9486 26.6648 89.7251 26.6648C88.5017 26.6648 87.4553 27.0189 86.5859 27.7273C85.7327 28.4195 85.0727 29.4257 84.6058 30.7457C84.1551 32.0497 83.9297 33.6193 83.9297 35.4545C83.9297 37.2898 84.1551 38.8513 84.6058 40.1392C85.0727 41.411 85.7327 42.3849 86.5859 43.0611C87.4553 43.7211 88.5017 44.0511 89.7251 44.0511ZM115.533 54V16.9091H128.863V54H115.533ZM122.198 13.0455C120.395 13.0455 118.849 12.4498 117.561 11.2585C116.274 10.0672 115.63 8.63447 115.63 6.96023C115.63 5.28598 116.274 3.85322 117.561 2.66193C118.849 1.47064 120.395 0.875 122.198 0.875C124.017 0.875 125.562 1.47064 126.834 2.66193C128.122 3.85322 128.766 5.28598 128.766 6.96023C128.766 8.63447 128.122 10.0672 126.834 11.2585C125.562 12.4498 124.017 13.0455 122.198 13.0455ZM157.773 16.9091V26.5682H133.336V16.9091H157.773ZM138.069 8.02273H151.398V42.071C151.398 42.5862 151.487 43.0208 151.664 43.375C151.841 43.7131 152.115 43.9706 152.485 44.1477C152.855 44.3087 153.33 44.3892 153.91 44.3892C154.312 44.3892 154.779 44.3409 155.31 44.2443C155.858 44.1477 156.26 44.0672 156.518 44.0028L158.45 53.3722C157.854 53.5492 157.001 53.7666 155.89 54.0241C154.795 54.2817 153.491 54.4508 151.978 54.5312C148.919 54.6922 146.352 54.3783 144.275 53.5895C142.198 52.7846 140.637 51.5208 139.59 49.7983C138.544 48.0758 138.037 45.9186 138.069 43.3267V8.02273ZM173.548 54.5795C171.181 54.5795 169.089 54.1932 167.27 53.4205C165.467 52.6316 164.05 51.4403 163.02 49.8466C161.989 48.2528 161.474 46.2244 161.474 43.7614C161.474 41.733 161.82 40.0024 162.512 38.5696C163.205 37.1207 164.171 35.9375 165.41 35.0199C166.65 34.1023 168.091 33.402 169.733 32.919C171.391 32.4361 173.178 32.1222 175.093 31.9773C177.17 31.8163 178.836 31.6231 180.092 31.3977C181.364 31.1562 182.281 30.8262 182.845 30.4077C183.408 29.973 183.69 29.4015 183.69 28.6932V28.5966C183.69 27.6307 183.32 26.8902 182.579 26.375C181.839 25.8598 180.889 25.6023 179.73 25.6023C178.458 25.6023 177.42 25.884 176.615 26.4474C175.826 26.9948 175.351 27.84 175.19 28.983H162.923C163.084 26.7292 163.8 24.6525 165.072 22.7528C166.36 20.8371 168.235 19.3078 170.699 18.1648C173.162 17.0057 176.236 16.4261 179.923 16.4261C182.579 16.4261 184.962 16.7401 187.071 17.3679C189.18 17.9796 190.975 18.8409 192.456 19.9517C193.937 21.0464 195.064 22.3343 195.836 23.8153C196.625 25.2803 197.02 26.8741 197.02 28.5966V54H184.559V48.7841H184.27C183.529 50.1686 182.627 51.2874 181.565 52.1406C180.519 52.9938 179.319 53.6136 177.967 54C176.631 54.3864 175.158 54.5795 173.548 54.5795ZM177.895 46.1761C178.909 46.1761 179.859 45.9669 180.744 45.5483C181.645 45.1297 182.378 44.526 182.941 43.7372C183.505 42.9484 183.787 41.9905 183.787 40.8636V37.7727C183.432 37.9176 183.054 38.0545 182.652 38.1832C182.265 38.312 181.847 38.4328 181.396 38.5455C180.961 38.6581 180.494 38.7628 179.995 38.8594C179.512 38.956 179.005 39.0445 178.474 39.125C177.444 39.286 176.599 39.5516 175.939 39.9219C175.295 40.276 174.812 40.7188 174.49 41.25C174.184 41.7652 174.031 42.3447 174.031 42.9886C174.031 44.0189 174.393 44.8078 175.118 45.3551C175.842 45.9025 176.768 46.1761 177.895 46.1761ZM216.718 4.54545V54H203.388V4.54545H216.718ZM250.386 4.54545V54H237.056V4.54545H250.386ZM257.178 54V16.9091H270.507V54H257.178ZM263.842 13.0455C262.039 13.0455 260.494 12.4498 259.206 11.2585C257.918 10.0672 257.274 8.63447 257.274 6.96023C257.274 5.28598 257.918 3.85322 259.206 2.66193C260.494 1.47064 262.039 0.875 263.842 0.875C265.661 0.875 267.207 1.47064 268.479 2.66193C269.767 3.85322 270.411 5.28598 270.411 6.96023C270.411 8.63447 269.767 10.0672 268.479 11.2585C267.207 12.4498 265.661 13.0455 263.842 13.0455ZM299.515 16.9091V26.5682H274.691V16.9091H299.515ZM279.424 54V15.8466C279.424 12.7879 279.971 10.2524 281.066 8.24005C282.16 6.22774 283.706 4.72254 285.702 3.72443C287.698 2.72632 290.049 2.22727 292.753 2.22727C294.444 2.22727 296.086 2.35606 297.679 2.61364C299.289 2.87121 300.48 3.09659 301.253 3.28977L299.321 12.8523C298.838 12.7074 298.275 12.5947 297.631 12.5142C296.987 12.4176 296.424 12.3693 295.941 12.3693C294.685 12.3693 293.84 12.6349 293.405 13.1662C292.971 13.6974 292.753 14.3977 292.753 15.267V54H279.424ZM321.302 54.6761C317.342 54.6761 313.929 53.9195 311.063 52.4062C308.214 50.8769 306.016 48.6875 304.471 45.8381C302.942 42.9725 302.177 39.5436 302.177 35.5511C302.177 31.7197 302.95 28.3712 304.495 25.5057C306.04 22.6402 308.222 20.4105 311.039 18.8168C313.856 17.223 317.181 16.4261 321.012 16.4261C323.813 16.4261 326.349 16.8608 328.619 17.7301C330.888 18.5994 332.828 19.8632 334.438 21.5213C336.048 23.1634 337.288 25.1596 338.157 27.5099C339.026 29.8603 339.461 32.5085 339.461 35.4545V38.5455H306.33V31.2045H327.194C327.178 30.142 326.904 29.2083 326.373 28.4034C325.858 27.5824 325.157 26.9465 324.272 26.4957C323.403 26.0289 322.413 25.7955 321.302 25.7955C320.223 25.7955 319.233 26.0289 318.332 26.4957C317.43 26.9465 316.706 27.5743 316.158 28.3793C315.627 29.1842 315.345 30.1259 315.313 31.2045V39.125C315.313 40.3163 315.563 41.3788 316.062 42.3125C316.561 43.2462 317.277 43.9787 318.211 44.5099C319.145 45.0412 320.272 45.3068 321.592 45.3068C322.509 45.3068 323.346 45.178 324.103 44.9205C324.876 44.6629 325.536 44.2926 326.083 43.8097C326.63 43.3106 327.033 42.715 327.29 42.0227H339.461C339.042 44.5985 338.052 46.8362 336.491 48.7358C334.929 50.6193 332.861 52.0843 330.285 53.1307C327.725 54.161 324.731 54.6761 321.302 54.6761ZM380.663 16.9091V26.5682H355.839V16.9091H380.663ZM360.572 54V15.8466C360.572 12.7879 361.119 10.2524 362.214 8.24005C363.309 6.22774 364.854 4.72254 366.85 3.72443C368.847 2.72632 371.197 2.22727 373.902 2.22727C375.592 2.22727 377.234 2.35606 378.828 2.61364C380.438 2.87121 381.629 3.09659 382.402 3.28977L380.47 12.8523C379.987 12.7074 379.423 12.5947 378.779 12.5142C378.136 12.4176 377.572 12.3693 377.089 12.3693C375.833 12.3693 374.988 12.6349 374.554 13.1662C374.119 13.6974 373.902 14.3977 373.902 15.267V54H360.572ZM402.547 54.6761C398.522 54.6761 395.077 53.8793 392.212 52.2855C389.346 50.6757 387.149 48.438 385.619 45.5724C384.09 42.6908 383.325 39.3504 383.325 35.5511C383.325 31.7519 384.09 28.4195 385.619 25.554C387.149 22.6723 389.346 20.4347 392.212 18.8409C395.077 17.2311 398.522 16.4261 402.547 16.4261C406.571 16.4261 410.017 17.2311 412.882 18.8409C415.748 20.4347 417.945 22.6723 419.474 25.554C421.004 28.4195 421.768 31.7519 421.768 35.5511C421.768 39.3504 421.004 42.6908 419.474 45.5724C417.945 48.438 415.748 50.6757 412.882 52.2855C410.017 53.8793 406.571 54.6761 402.547 54.6761ZM402.643 44.8239C403.77 44.8239 404.744 44.4455 405.565 43.6889C406.386 42.9323 407.022 41.8537 407.473 40.4531C407.924 39.0526 408.149 37.3864 408.149 35.4545C408.149 33.5066 407.924 31.8404 407.473 30.456C407.022 29.0554 406.386 27.9768 405.565 27.2202C404.744 26.4635 403.77 26.0852 402.643 26.0852C401.452 26.0852 400.43 26.4635 399.577 27.2202C398.723 27.9768 398.071 29.0554 397.621 30.456C397.17 31.8404 396.945 33.5066 396.945 35.4545C396.945 37.3864 397.17 39.0526 397.621 40.4531C398.071 41.8537 398.723 42.9323 399.577 43.6889C400.43 44.4455 401.452 44.8239 402.643 44.8239ZM427.178 54V16.9091H440.121V23.9602H440.507C441.183 21.3523 442.254 19.4446 443.719 18.2372C445.2 17.0298 446.93 16.4261 448.911 16.4261C449.49 16.4261 450.062 16.4744 450.625 16.571C451.205 16.6515 451.76 16.7723 452.291 16.9332V28.3068C451.631 28.0814 450.818 27.9124 449.852 27.7997C448.886 27.687 448.057 27.6307 447.365 27.6307C446.061 27.6307 444.886 27.9285 443.839 28.5241C442.809 29.1037 441.996 29.9247 441.401 30.9872C440.805 32.0336 440.507 33.2652 440.507 34.6818V54H427.178ZM19.1534 125.676C15.1932 125.676 11.7803 124.92 8.91477 123.406C6.06534 121.877 3.8679 119.687 2.32244 116.838C0.793087 113.973 0.0284092 110.544 0.0284092 106.551C0.0284092 102.72 0.801136 99.3712 2.34659 96.5057C3.89205 93.6402 6.07339 91.4105 8.89062 89.8168C11.7079 88.223 15.0322 87.4261 18.8636 87.4261C21.6648 87.4261 24.2003 87.8608 26.4702 88.7301C28.7401 89.5994 30.6799 90.8632 32.2898 92.5213C33.8996 94.1634 35.1392 96.1596 36.0085 98.5099C36.8778 100.86 37.3125 103.509 37.3125 106.455V109.545H4.18182V102.205H25.0455C25.0294 101.142 24.7557 100.208 24.2244 99.4034C23.7093 98.5824 23.009 97.9465 22.1236 97.4957C21.2543 97.0289 20.2642 96.7955 19.1534 96.7955C18.0748 96.7955 17.0848 97.0289 16.1832 97.4957C15.2817 97.9465 14.5573 98.5743 14.0099 99.3793C13.4787 100.184 13.197 101.126 13.1648 102.205V110.125C13.1648 111.316 13.4143 112.379 13.9134 113.312C14.4124 114.246 15.1288 114.979 16.0625 115.51C16.9962 116.041 18.1231 116.307 19.4432 116.307C20.3608 116.307 21.1979 116.178 21.9545 115.92C22.7273 115.663 23.3873 115.293 23.9347 114.81C24.482 114.311 24.8845 113.715 25.142 113.023H37.3125C36.8939 115.598 35.9039 117.836 34.3423 119.736C32.7808 121.619 30.7121 123.084 28.1364 124.131C25.5767 125.161 22.5824 125.676 19.1534 125.676ZM79.2028 87.9091L66.7425 125H51.288L38.8278 87.9091H52.8335L58.8221 112.443H59.2085L65.1971 87.9091H79.2028ZM99.6378 125.676C95.6776 125.676 92.2647 124.92 89.3991 123.406C86.5497 121.877 84.3523 119.687 82.8068 116.838C81.2775 113.973 80.5128 110.544 80.5128 106.551C80.5128 102.72 81.2855 99.3712 82.831 96.5057C84.3764 93.6402 86.5578 91.4105 89.375 89.8168C92.1922 88.223 95.5166 87.4261 99.348 87.4261C102.149 87.4261 104.685 87.8608 106.955 88.7301C109.224 89.5994 111.164 90.8632 112.774 92.5213C114.384 94.1634 115.624 96.1596 116.493 98.5099C117.362 100.86 117.797 103.509 117.797 106.455V109.545H84.6662V102.205H105.53C105.514 101.142 105.24 100.208 104.709 99.4034C104.194 98.5824 103.493 97.9465 102.608 97.4957C101.739 97.0289 100.749 96.7955 99.6378 96.7955C98.5592 96.7955 97.5691 97.0289 96.6676 97.4957C95.7661 97.9465 95.0417 98.5743 94.4943 99.3793C93.9631 100.184 93.6813 101.126 93.6491 102.205V110.125C93.6491 111.316 93.8987 112.379 94.3977 113.312C94.8968 114.246 95.6132 114.979 96.5469 115.51C97.4806 116.041 98.6075 116.307 99.9276 116.307C100.845 116.307 101.682 116.178 102.439 115.92C103.212 115.663 103.872 115.293 104.419 114.81C104.966 114.311 105.369 113.715 105.626 113.023H117.797C117.378 115.598 116.388 117.836 114.827 119.736C113.265 121.619 111.196 123.084 108.621 124.131C106.061 125.161 103.067 125.676 99.6378 125.676ZM123.236 125V87.9091H136.179V94.9602H136.566C137.242 92.3523 138.312 90.4446 139.777 89.2372C141.258 88.0298 142.989 87.4261 144.969 87.4261C145.549 87.4261 146.12 87.4744 146.684 87.571C147.263 87.6515 147.819 87.7723 148.35 87.9332V99.3068C147.69 99.0814 146.877 98.9124 145.911 98.7997C144.945 98.687 144.116 98.6307 143.424 98.6307C142.12 98.6307 140.944 98.9285 139.898 99.5241C138.868 100.104 138.055 100.925 137.459 101.987C136.864 103.034 136.566 104.265 136.566 105.682V125H123.236ZM161.963 138.909C160.434 138.909 158.977 138.788 157.592 138.547C156.208 138.321 154.992 138.008 153.946 137.605L156.844 128.139C157.938 128.526 158.937 128.775 159.838 128.888C160.756 129 161.536 128.936 162.18 128.695C162.84 128.453 163.315 127.994 163.605 127.318L163.895 126.642L150.855 87.9091H164.764L170.753 113.602H171.139L177.224 87.9091H191.23L177.707 128.091C177.031 130.135 176.049 131.971 174.761 133.597C173.49 135.239 171.815 136.535 169.739 137.484C167.662 138.434 165.07 138.909 161.963 138.909ZM221.801 75.5455V125H208.375V75.5455H221.801ZM241.687 104.136V125H228.357V87.9091H241.011V94.9602H241.397C242.202 92.6098 243.619 90.7666 245.647 89.4304C247.692 88.0942 250.074 87.4261 252.795 87.4261C255.419 87.4261 257.697 88.0298 259.629 89.2372C261.576 90.4285 263.082 92.0705 264.144 94.1634C265.223 96.2562 265.754 98.6468 265.738 101.335V125H252.408V104.136C252.424 102.301 251.958 100.86 251.008 99.8139C250.074 98.7675 248.77 98.2443 247.096 98.2443C246.001 98.2443 245.043 98.4858 244.222 98.9688C243.417 99.4356 242.798 100.112 242.363 100.997C241.928 101.866 241.703 102.913 241.687 104.136ZM285.744 125.483C283.104 125.483 280.673 124.791 278.452 123.406C276.246 122.022 274.475 119.921 273.139 117.104C271.819 114.286 271.159 110.737 271.159 106.455C271.159 101.979 271.851 98.3409 273.236 95.5398C274.636 92.7386 276.439 90.6861 278.645 89.3821C280.866 88.0781 283.201 87.4261 285.648 87.4261C287.483 87.4261 289.093 87.7481 290.477 88.392C291.862 89.0199 293.021 89.8651 293.955 90.9276C294.888 91.974 295.597 93.125 296.08 94.3807H296.273V75.5455H309.602V125H296.369V118.915H296.08C295.564 120.17 294.824 121.297 293.858 122.295C292.908 123.277 291.749 124.058 290.381 124.638C289.028 125.201 287.483 125.483 285.744 125.483ZM290.67 115.244C291.894 115.244 292.94 114.89 293.81 114.182C294.695 113.457 295.371 112.443 295.838 111.139C296.321 109.819 296.562 108.258 296.562 106.455C296.562 104.619 296.321 103.05 295.838 101.746C295.371 100.426 294.695 99.4195 293.81 98.7273C292.94 98.0189 291.894 97.6648 290.67 97.6648C289.447 97.6648 288.401 98.0189 287.531 98.7273C286.678 99.4195 286.018 100.426 285.551 101.746C285.1 103.05 284.875 104.619 284.875 106.455C284.875 108.29 285.1 109.867 285.551 111.188C286.018 112.491 286.678 113.498 287.531 114.206C288.401 114.898 289.447 115.244 290.67 115.244ZM316.146 125V87.9091H329.476V125H316.146ZM322.811 84.0455C321.008 84.0455 319.463 83.4498 318.175 82.2585C316.887 81.0672 316.243 79.6345 316.243 77.9602C316.243 76.286 316.887 74.8532 318.175 73.6619C319.463 72.4706 321.008 71.875 322.811 71.875C324.63 71.875 326.176 72.4706 327.447 73.6619C328.735 74.8532 329.379 76.286 329.379 77.9602C329.379 79.6345 328.735 81.0672 327.447 82.2585C326.176 83.4498 324.63 84.0455 322.811 84.0455ZM346.603 125.58C344.236 125.58 342.143 125.193 340.324 124.42C338.521 123.632 337.105 122.44 336.074 120.847C335.044 119.253 334.529 117.224 334.529 114.761C334.529 112.733 334.875 111.002 335.567 109.57C336.259 108.121 337.225 106.938 338.465 106.02C339.704 105.102 341.145 104.402 342.787 103.919C344.445 103.436 346.232 103.122 348.148 102.977C350.225 102.816 351.891 102.623 353.147 102.398C354.418 102.156 355.336 101.826 355.9 101.408C356.463 100.973 356.745 100.402 356.745 99.6932V99.5966C356.745 98.6307 356.374 97.8902 355.634 97.375C354.893 96.8598 353.944 96.6023 352.784 96.6023C351.513 96.6023 350.474 96.884 349.669 97.4474C348.881 97.9948 348.406 98.84 348.245 99.983H335.978C336.139 97.7292 336.855 95.6525 338.127 93.7528C339.415 91.8371 341.29 90.3078 343.753 89.1648C346.216 88.0057 349.291 87.4261 352.978 87.4261C355.634 87.4261 358.016 87.7401 360.125 88.3679C362.234 88.9796 364.029 89.8409 365.51 90.9517C366.991 92.0464 368.118 93.3343 368.891 94.8153C369.68 96.2803 370.074 97.8741 370.074 99.5966V125H357.614V119.784H357.324C356.584 121.169 355.682 122.287 354.62 123.141C353.573 123.994 352.374 124.614 351.022 125C349.685 125.386 348.212 125.58 346.603 125.58ZM350.949 117.176C351.963 117.176 352.913 116.967 353.799 116.548C354.7 116.13 355.433 115.526 355.996 114.737C356.56 113.948 356.841 112.991 356.841 111.864V108.773C356.487 108.918 356.109 109.054 355.706 109.183C355.32 109.312 354.901 109.433 354.451 109.545C354.016 109.658 353.549 109.763 353.05 109.859C352.567 109.956 352.06 110.045 351.529 110.125C350.498 110.286 349.653 110.552 348.993 110.922C348.349 111.276 347.866 111.719 347.544 112.25C347.239 112.765 347.086 113.345 347.086 113.989C347.086 115.019 347.448 115.808 348.172 116.355C348.897 116.902 349.822 117.176 350.949 117.176ZM389.773 104.136V125H376.443V87.9091H389.097V94.9602H389.483C390.288 92.6098 391.705 90.7666 393.733 89.4304C395.777 88.0942 398.16 87.4261 400.881 87.4261C403.505 87.4261 405.783 88.0298 407.714 89.2372C409.662 90.4285 411.168 92.0705 412.23 94.1634C413.309 96.2562 413.84 98.6468 413.824 101.335V125H400.494V104.136C400.51 102.301 400.044 100.86 399.094 99.8139C398.16 98.7675 396.856 98.2443 395.182 98.2443C394.087 98.2443 393.129 98.4858 392.308 98.9688C391.503 99.4356 390.884 100.112 390.449 100.997C390.014 101.866 389.789 102.913 389.773 104.136Z" fill="white"/>
</svg>
